<svg xmlns="http://www.w3.org/2000/svg" xmlns:xlink="http://www.w3.org/1999/xlink" viewBox="0 0 24 24">
    <path d="M12 0C8.741 0 8.333.014 7.053.072c-1.277.06-2.15.262-2.912.559a5.882 5.882 0 0 0-2.125 1.383A5.882 5.882 0 0 0 .63 4.14c-.297.763-.5 1.635-.559 2.912C.014 8.333 0 8.74 0 12s.014 3.667.072 4.947c.058 1.277.262 2.15.559 2.912.307.79.716 1.46 1.383 2.127A5.882 5.882 0 0 0 4.14 23.37c.764.297 1.635.5 2.912.559C8.332 23.986 8.74 24 12 24s3.667-.014 4.947-.072c1.277-.058 2.15-.262 2.912-.559a5.883 5.883 0 0 0 2.127-1.383 5.883 5.883 0 0 0 1.383-2.127c.297-.763.5-1.635.559-2.912.058-1.28.072-1.688.072-4.947s-.014-3.667-.072-4.947c-.058-1.277-.262-2.15-.559-2.912a5.882 5.882 0 0 0-1.383-2.127A5.883 5.883 0 0 0 19.86.63c-.763-.297-1.635-.5-2.912-.559C15.667.014 15.26 0 12 0zm0 2.162c3.204 0 3.585.012 4.85.07 1.17.054 1.803.249 2.226.413.56.218.961.478 1.381.898.42.42.68.82.899 1.38.164.424.359 1.057.412 2.227.058 1.265.07 1.646.07 4.85s-.012 3.585-.07 4.85c-.053 1.17-.248 1.803-.412 2.226-.218.56-.479.961-.899 1.381s-.82.68-1.38.899c-.424.164-1.057.359-2.227.412-1.265.058-1.646.07-4.85.07s-3.585-.012-4.85-.07c-1.17-.053-1.803-.248-2.226-.412a3.718 3.718 0 0 1-1.381-.899c-.42-.42-.68-.82-.899-1.38-.164-.424-.359-1.057-.412-2.227-.058-1.265-.07-1.646-.07-4.85s.012-3.585.07-4.85c.053-1.17.248-1.803.412-2.226a3.73 3.73 0 0 1 .899-1.381c.42-.42.82-.68 1.38-.898.424-.164 1.057-.36 2.227-.413 1.265-.058 1.646-.07 4.85-.07zm6.613 1.285a1.714 1.714 0 0 0-1.47 1.696 1.714 1.714 0 0 0 3.427 0 1.714 1.714 0 0 0-1.957-1.696zM12.43 5.143a6.429 6.429 0 1 0 0 12.857 6.429 6.429 0 0 0 0-12.857zm0 2.256a4.173 4.173 0 0 1 0 8.345 4.173 4.173 0 1 1 0-8.345z"/>
</svg>
