<svg xmlns="http://www.w3.org/2000/svg" xmlns:xlink="http://www.w3.org/1999/xlink" viewBox="0 0 128 28">
    <style>
        .st-thomas { fill: #510c76; }
        .university-of { fill: #982EB4; }
        .shield-part { fill: #982EB4; }
    </style>
    <path class="st-thomas" d="M126,16.2 C124.8,14.8 123.1,14 121.3,14.1 C118.5,14.1 116.2,15.2 116.2,17.8 C116.2,22.1 123.3,20.5 123.3,22.5 C123.3,23.1 122.4,23.8 121.1,23.8 C119.8,23.9 118.6,23.4 117.8,22.4 L115.7,24 C117.2,25.5 119.2,26.2 121.2,26.1 C123.8,26.1 126.3,24.9 126.3,22.1 C126.3,17.8 119.1,19.5 119.1,17.5 C119.1,16.8 119.9,16.4 121.2,16.4 C122.4,16.3 123.5,17 124.1,18 L126,16.2 Z M111.8,21.8 C111.8,23.3 110.1,23.9 108.9,23.9 C107.9,23.9 107.1,23.3 107.1,22.5 C107.1,21.4 108,21.1 109,20.9 L110.5,20.6 C111,20.5 111.4,20.4 111.8,20.2 L111.8,21.8 Z M114.5,17.9 C114.5,14.6 112,14.1 109.6,14.1 C107.1,14.1 104.7,15.1 104.7,17.8 L107.5,17.9 C107.5,16.7 108,16.2 109.6,16.2 C110.8,16.2 111.8,16.5 111.8,17.7 L111.8,18 C110.8,18.3 109.8,18.5 108.8,18.7 L107.6,18.9 C105.9,19.2 104.1,20.2 104.1,22.5 C104.1,24.5 105.7,26.1 107.7,26.1 C107.8,26.1 107.9,26.1 108,26.1 C109.4,26.1 110.7,25.6 111.7,24.8 C111.7,25.2 111.8,25.5 112,25.8 L114.9,25.8 C114.6,25.2 114.4,24.5 114.5,23.9 L114.5,17.9 L114.5,17.9 Z M85.7,25.9 L88.5,25.9 L88.5,19.9 C88.5,18.3 89.4,16.8 90.9,16.8 C92.2,16.8 92.8,17.7 92.8,19 L92.8,26 L95.6,26 L95.6,20 C95.6,18.4 96.5,16.9 98.1,16.9 C99.4,16.9 100,17.8 100,19.1 L100,26.1 L102.8,26.1 L102.8,18 C102.8,15.5 101.3,14.3 98.8,14.3 C97.4,14.3 96.1,14.9 95.3,16 C94.6,14.8 93.3,14.1 91.9,14.3 C90.6,14.3 89.4,14.8 88.6,15.7 L88.6,14.6 L85.8,14.6 L85.8,25.9 L85.7,25.9 Z M78.8,16.7 C80.8,16.7 81.8,18.4 81.8,20.2 C81.8,22 80.8,23.7 78.8,23.7 C76.8,23.7 75.8,22 75.8,20.2 C75.8,18.4 76.8,16.7 78.8,16.7 Z M78.8,14.2 C75.1,14.2 72.9,16.8 72.9,20.2 C72.9,23.6 75.1,26.2 78.8,26.2 C82.5,26.2 84.7,23.6 84.7,20.2 C84.7,16.8 82.5,14.2 78.8,14.2 Z M61.1,25.9 L63.9,25.9 L63.9,20 C63.9,18.6 64.5,16.8 66.6,16.8 C68,16.8 68.6,17.5 68.6,19.1 L68.6,25.9 L71.4,25.9 L71.4,18.3 C71.4,15 69.2,14.2 67.2,14.2 C65.9,14.1 64.7,14.6 63.9,15.6 L63.9,15.6 L63.9,9.8 L61.1,9.8 L61.1,25.9 L61.1,25.9 Z M52.6,25.9 L55.6,25.9 L55.6,12.6 L60,12.6 L60,9.8 L48.1,9.8 L48.1,12.6 L52.5,12.6 L52.6,25.9 Z M44.7,25.9 L47.7,25.9 L47.7,22.8 L44.7,22.8 L44.7,25.9 Z M38.2,14.4 L36.5,14.4 L36.5,16.4 L38.2,16.4 L38.2,23.2 C38.2,24.9 39,26 41.2,26 C41.9,26 42.7,25.9 43.4,25.7 L43.4,23.4 C43,23.5 42.6,23.5 42.2,23.5 C41.1,23.5 41,23 41,22.1 L41,16.3 L43.5,16.3 L43.5,14.3 L41,14.3 L41,10.2 L38.2,10.2 L38.2,14.4 Z M22.2,22.9 C23.8,25.1 26.4,26.4 29.2,26.3 C32.6,26.3 36.3,24.9 36.3,21 C36.3,17.9 34,17 31.6,16.4 L29.6,16 C27.8,15.6 26.3,15.3 26.3,13.9 C26.3,12.8 27.6,12.1 29.4,12.1 C31.1,12 32.8,12.9 33.6,14.4 L36.1,12.5 C34.5,10.4 32,9.2 29.4,9.3 C26.4,9.3 23.1,10.9 23.1,14.3 C23.1,17.3 25.4,18.2 27.9,18.8 L29.7,19.2 C31.8,19.7 33,20.1 33,21.3 C33,22.9 31.1,23.4 29.6,23.4 C27.7,23.5 25.8,22.6 24.7,21 L22.2,22.9 Z"/>
    <path class="university-of" d="M77.2,6.2 L78.1,6.2 L78.1,4.2 L80.1,4.2 L80.1,3.4 L78.1,3.4 L78.1,2.2 L80.4,2.2 L80.4,1.4 L77.2,1.4 L77.2,6.2 Z M73.3,1.3 C72,1.3 71,2.4 71,3.7 C71,3.8 71,3.8 71,3.9 C70.9,5.2 71.8,6.3 73.1,6.4 C74.4,6.5 75.5,5.6 75.6,4.3 C75.6,4.2 75.6,4 75.6,3.9 C75.7,2.6 74.7,1.5 73.5,1.4 C73.4,1.3 73.3,1.3 73.3,1.3 Z M73.3,2.1 C74.3,2.1 74.7,2.9 74.7,3.8 C74.7,4.7 74.3,5.5 73.3,5.5 C72.3,5.5 71.9,4.7 71.9,3.8 C71.9,2.9 72.3,2.1 73.3,2.1 Z M65.8,6.2 L66.7,6.2 L66.7,4.3 L68.3,1.4 L67.3,1.4 L66.3,3.4 L65.3,1.4 L64.3,1.4 L65.9,4.3 L65.8,6.2 Z M60.9,6.2 L61.8,6.2 L61.8,2.2 L63.1,2.2 L63.1,1.4 L59.6,1.4 L59.6,2.2 L60.9,2.2 L60.9,6.2 Z M57.2,6.2 L58.1,6.2 L58.1,1.4 L57.2,1.4 L57.2,6.2 Z M51.4,5.3 C51.9,6 52.7,6.3 53.5,6.3 C54.5,6.3 55.6,5.9 55.6,4.7 C55.6,3.8 54.9,3.5 54.2,3.3 L53.6,3.2 C53.1,3.1 52.6,3 52.6,2.6 C52.6,2.3 53,2.1 53.5,2.1 C54,2.1 54.5,2.3 54.8,2.8 L55.5,2.2 C55,1.6 54.3,1.2 53.5,1.2 C52.6,1.2 51.6,1.7 51.6,2.7 C51.6,3.6 52.3,3.9 53,4 L53.5,4.1 C54.1,4.2 54.5,4.4 54.5,4.7 C54.5,5.2 53.9,5.3 53.5,5.3 C52.9,5.3 52.4,5 52,4.6 L51.4,5.3 Z M47.6,2.2 L48.4,2.2 C49,2.2 49.3,2.5 49.3,2.9 C49.3,3.3 49,3.6 48.6,3.6 C48.6,3.6 48.5,3.6 48.5,3.6 L47.5,3.6 L47.5,2.2 L47.6,2.2 Z M46.7,6.2 L47.6,6.2 L47.6,4.4 L48.5,4.4 L49.4,6.2 L50.4,6.2 L49.3,4.3 C49.9,4.1 50.3,3.5 50.3,2.9 C50.3,2.1 49.7,1.4 48.9,1.4 C48.8,1.4 48.8,1.4 48.7,1.4 L46.7,1.4 L46.7,6.2 Z M41.6,6.2 L45.2,6.2 L45.2,5.4 L42.5,5.4 L42.5,4.1 L44.8,4.1 L44.8,3.3 L42.5,3.3 L42.5,2.2 L45,2.2 L45,1.4 L41.6,1.4 L41.6,6.2 Z M37.6,6.2 L38.8,6.2 L40.2,1.4 L39.3,1.4 L38.2,5.2 L38.2,5.2 L37.1,1.4 L36.2,1.4 L37.6,6.2 Z M33.9,6.2 L34.8,6.2 L34.8,1.4 L33.9,1.4 L33.9,6.2 Z M28.3,6.2 L29.1,6.2 L29.1,2.8 L29.1,2.8 L31.1,6.2 L32,6.2 L32,1.4 L31.2,1.4 L31.2,4.8 L31.2,4.8 L29.2,1.4 L28.4,1.4 L28.3,6.2 Z M26.5,1.4 L25.6,1.4 L25.6,4.5 C25.6,5.1 25.4,5.5 24.6,5.5 C23.8,5.5 23.6,5.1 23.6,4.5 L23.6,1.4 L22.7,1.4 L22.7,4.7 C22.7,5.7 23.5,6.3 24.6,6.3 C25.7,6.3 26.5,5.7 26.5,4.7 L26.5,1.4 Z"/>
    <path class="shield-part" d="M18.7,11 C18.5,11 18.4,11.1 18.3,11.2 C17.7,11.7 16.8,11.7 16.2,11.2 C15.7,10.9 15.1,10.9 14.6,11.2 C14,11.7 13.1,11.7 12.5,11.2 C12,10.9 11.4,10.9 10.9,11.2 C10.7,11.3 10.6,11.4 10.4,11.5 L10.4,15 C10.2,15 10.1,15 9.9,15 C9.7,15 9.6,15 9.4,15 L9.4,11.5 C9.2,11.5 9,11.4 8.9,11.2 C8.7,11 8.4,10.9 8.1,10.9 C7.8,10.9 7.5,11 7.3,11.2 C7,11.4 6.6,11.6 6.2,11.6 C5.8,11.6 5.4,11.5 5.1,11.2 C5,11 4.7,10.9 4.4,10.9 C4.1,10.9 3.8,11 3.6,11.2 C3.3,11.4 2.9,11.6 2.5,11.6 C2.1,11.6 1.7,11.5 1.5,11.2 C1.3,11.1 1.2,11 1,11 C0.9,13.1 1.1,15.1 1.7,17.1 L7.1,17.1 C7.1,17.3 7.1,17.4 7.1,17.6 C7.1,17.8 7.1,18 7.2,18.1 L2.1,18.1 C3.5,21.6 6,24.4 9.3,26.2 L9.3,20.2 C9.5,20.2 9.6,20.2 9.8,20.2 C10,20.2 10.1,20.2 10.3,20.2 L10.3,26.2 C13.6,24.5 16.2,21.6 17.5,18.1 L12.4,18.1 C12.4,17.9 12.5,17.8 12.5,17.6 C12.5,17.4 12.5,17.3 12.5,17.1 L18,17.1 C18.6,15.1 18.8,13.1 18.7,11 M6.9,12.7 C7.1,13.1 7.5,13.4 7.9,13.6 C8.4,13.8 8.9,14.2 9.1,14.7 C9.2,14.8 9.2,14.9 9.3,15 C8.9,15.1 8.4,15.3 8.1,15.6 C8,15.5 8,15.3 8,15.2 C7.9,14.7 7.7,14.2 7.3,13.8 C7.1,13.5 6.9,13.1 6.9,12.7 M6.9,16.5 C6.7,16 6.3,15.7 5.8,15.4 C5.5,15.2 5.2,14.9 5.1,14.5 C5.4,14.8 5.9,15 6.3,15 C6.9,15 7.4,15.3 7.8,15.7 C7.8,15.7 7.9,15.8 7.9,15.8 C7.6,16.1 7.4,16.6 7.2,17 C7.1,16.8 7,16.7 6.9,16.5 M5,20.6 C5.4,20.4 5.7,20 5.9,19.6 C6.1,19.1 6.5,18.6 7.1,18.4 C7.2,18.3 7.3,18.3 7.4,18.2 C7.5,18.6 7.7,19.1 8.1,19.4 C7.9,19.5 7.8,19.5 7.6,19.5 C7.1,19.6 6.6,19.8 6.2,20.2 C5.7,20.5 5.4,20.6 5,20.6 M8.8,20.6 C8.3,20.8 8,21.2 7.7,21.7 C7.5,22 7.2,22.3 6.8,22.4 C7.1,22.1 7.2,21.6 7.3,21.2 C7.3,20.6 7.6,20.1 8,19.7 C8,19.7 8.1,19.6 8.1,19.6 C8.4,19.9 8.9,20.1 9.3,20.2 C9.1,20.4 9,20.5 8.8,20.6 M10.9,14.5 C11.4,14.3 11.7,13.9 12,13.4 C12.2,13.1 12.5,12.8 12.9,12.7 C12.6,13 12.5,13.5 12.4,13.9 C12.4,14.5 12.1,15 11.7,15.4 C11.7,15.4 11.6,15.5 11.6,15.6 C11.3,15.3 10.8,15.1 10.4,15 C10.6,14.8 10.7,14.7 10.9,14.5 M12.8,22.5 C12.6,22.1 12.2,21.8 11.8,21.6 C11.3,21.4 10.8,21 10.6,20.5 C10.5,20.4 10.5,20.3 10.4,20.2 C10.8,20.1 11.3,19.9 11.6,19.6 C11.7,19.7 11.7,19.9 11.7,20 C11.8,20.5 12,21 12.4,21.4 C12.6,21.7 12.8,22.1 12.8,22.5 M12.8,18.7 C13,19.2 13.4,19.5 13.9,19.8 C14.2,20 14.5,20.3 14.6,20.7 C14.2,20.4 13.8,20.3 13.4,20.2 C12.8,20.2 12.3,19.9 11.9,19.5 C11.9,19.5 11.8,19.4 11.8,19.4 C12.1,19.1 12.3,18.7 12.5,18.2 C12.6,18.4 12.7,18.5 12.8,18.7 M13.9,15.5 C13.7,16 13.3,16.5 12.7,16.7 C12.6,16.8 12.5,16.8 12.4,16.9 C12.3,16.5 12.1,16.1 11.8,15.8 L11.7,15.7 C11.9,15.6 12,15.6 12.2,15.6 C12.7,15.6 13.2,15.3 13.6,14.9 C13.9,14.7 14.3,14.5 14.7,14.5 C14.4,14.8 14.1,15.1 13.9,15.5"/>
    <path class="shield-part" d="M2.6,10.2 C2.9,10.2 3.2,10.1 3.4,9.9 C3.7,9.7 4.1,9.5 4.4,9.6 C4.8,9.6 5.1,9.7 5.4,9.9 C5.6,10.1 5.9,10.2 6.2,10.2 C6.5,10.2 6.8,10.1 7,9.9 C7.3,9.7 7.7,9.5 8,9.5 C8.4,9.5 8.7,9.6 9,9.9 C9.2,10.1 9.5,10.2 9.8,10.2 L9.8,10.2 L9.8,10.2 C10.1,10.2 10.4,10.1 10.6,9.9 C11.2,9.4 12,9.4 12.7,9.9 C13.2,10.2 13.8,10.2 14.3,9.9 C14.9,9.4 15.7,9.4 16.4,9.9 C16.9,10.2 17.5,10.2 18,9.9 C18.2,9.7 18.4,9.6 18.7,9.6 L15.9,3.9 C15.5,4.2 15,4.4 14.5,4.3 C13.6,4.3 13.5,3.9 12.1,3.9 C11.3,3.8 10.6,4.1 10,4.6 L10,4.6 C9.3,4.1 8.5,3.8 7.8,3.9 C6.4,3.9 6.3,4.3 5.4,4.3 C4.9,4.4 4.4,4.3 4,3.9 L1.1,9.6 C1.4,9.6 1.6,9.7 1.8,9.9 C2.1,10.1 2.3,10.2 2.6,10.2 Z M12.1,4.9 C13.4,4.9 13.6,5.3 14.5,5.3 C14.9,5.3 15.3,5.3 15.7,5.1 L17.3,8.3 C17.3,8.3 17.1,8.5 15.8,8.5 C14.5,8.5 14.3,7.8 12.2,7.8 C11.6,7.8 11.1,8 10.6,8.4 L9.9,5.6 C10.5,5.1 11.3,4.8 12.1,4.9 Z M4.1,5.1 C4.5,5.3 4.9,5.3 5.3,5.3 C6.2,5.3 6.4,4.9 7.7,4.9 C8.5,4.8 9.3,5.1 9.9,5.6 L9.1,8.5 C8.7,8.1 8.1,7.9 7.5,7.9 C5.5,7.9 5.3,8.6 3.9,8.6 C2.5,8.6 2.5,8.4 2.5,8.4 L4.1,5.1 Z"/>
</svg>
