<svg viewBox="0 0 12 12" xmlns="http://www.w3.org/2000/svg">
    <path fill-rule="evenodd" clip-rule="evenodd" d="M0 6C0 9.31356 2.68644 12 6 12C9.31356 12 12 9.31356 12 6C12 2.68644 9.31356 0 6 0C2.68644 0 0 2.68644 0 6ZM11.5382 6.00004C11.5382 9.0586 9.05856 11.5383 6 11.5383C2.94144 11.5383 0.46176 9.0586 0.46176 6.00004C0.46176 2.94148 2.94144 0.461796 6 0.461796C9.05856 0.461796 11.5382 2.94148 11.5382 6.00004ZM6.5386 3.38248C6.3975 3.38248 6.28594 3.33794 6.20437 3.24841C6.12281 3.15935 6.08203 3.04075 6.08203 2.8931C6.08203 2.6831 6.15047 2.49467 6.28781 2.3278C6.42515 2.16046 6.59062 2.07702 6.78328 2.07702C6.93187 2.07702 7.03781 2.12765 7.10062 2.22842C7.1639 2.32967 7.1953 2.45765 7.1953 2.61326C7.1953 2.80733 7.13202 2.98452 7.00593 3.14389C6.87984 3.3028 6.72421 3.38249 6.53859 3.38249L6.5386 3.38248ZM5.94844 8.94934C5.95594 8.89918 5.96344 8.8584 5.97047 8.827L6.70547 5.00298C6.72047 4.94111 6.72751 4.88252 6.72751 4.82814C6.72751 4.69643 6.6647 4.63033 6.5386 4.63033C6.49407 4.63033 6.40688 4.65752 6.27704 4.7119C6.14673 4.76627 5.9986 4.83612 5.83126 4.92143C5.66439 5.00722 5.49188 5.09862 5.31376 5.19565C5.13565 5.29269 4.97955 5.38034 4.84595 5.45768C4.86095 5.52003 4.8797 5.57441 4.90173 5.62128C4.92423 5.66769 4.95752 5.69112 5.00205 5.69112C5.03158 5.69112 5.07423 5.67753 5.13002 5.65034C5.18579 5.62316 5.2472 5.59597 5.31376 5.56878C5.38079 5.54159 5.4436 5.51441 5.50313 5.48722C5.5622 5.46003 5.60673 5.44644 5.63673 5.44644C5.70329 5.44644 5.73704 5.49285 5.73704 5.58613C5.73704 5.6016 5.72954 5.65222 5.71454 5.73753C5.69954 5.82331 5.66813 5.99628 5.61985 6.25644C5.57157 6.51707 5.49938 6.89394 5.40282 7.38753C5.30626 7.88109 5.17642 8.54341 5.01329 9.37497C5.00579 9.39841 4.99829 9.43919 4.99079 9.49731C4.98329 9.5559 4.97954 9.59668 4.97954 9.62012C4.97954 9.75184 5.01704 9.83574 5.0911 9.87043C5.16517 9.90559 5.24344 9.92293 5.32501 9.92293C5.39907 9.92293 5.49564 9.90184 5.61423 9.85871C5.73328 9.81606 5.85938 9.75981 5.99297 9.68997C6.12657 9.62013 6.26579 9.54043 6.41063 9.4509C6.55501 9.36137 6.69047 9.26622 6.81704 9.16543C6.78704 9.00981 6.735 8.932 6.66094 8.932C6.63141 8.932 6.59391 8.94559 6.54938 8.97278C6.52029 8.99054 6.48899 9.0101 6.45524 9.03121C6.43732 9.0424 6.41872 9.05404 6.39938 9.06606C6.3436 9.10122 6.28782 9.13215 6.23251 9.15934C6.17672 9.18653 6.12281 9.20012 6.07078 9.20012C5.98172 9.20012 5.93719 9.15371 5.93719 9.06043C5.93719 9.03699 5.94094 8.99996 5.94844 8.94934Z" />
</svg>