<svg xmlns="http://www.w3.org/2000/svg" fill="none" viewBox="0 0 153 192"><path fill="#982EB425" d="M152.043 61.021c-1.715 0-2.573.857-3.431 1.715-5.147 4.285-12.867 4.285-18.014 0-4.289-2.572-9.436-2.572-13.725 0-5.147 4.285-12.867 4.285-18.014 0-4.289-2.572-9.436-2.572-13.725 0-1.716.857-2.573 1.714-4.289 2.57v30h-8.578v-30c-1.716 0-3.431-.856-4.29-2.57-1.715-1.715-4.288-2.572-6.862-2.572-2.573 0-5.147.857-6.862 2.572-2.574 1.714-6.005 3.428-9.436 3.428s-6.863-.857-9.436-3.428c-.858-1.715-3.431-2.572-6.005-2.572-2.573 0-5.147.857-6.862 2.572-2.574 1.714-6.005 3.428-9.436 3.428s-6.863-.857-8.578-3.428C2.784 61.878 1.926 61.02.21 61.02c-.857 18 .858 35.143 6.005 52.286h46.322v4.286c0 1.714 0 3.428.858 4.285H9.647c12.009 30 33.454 54 61.762 69.429v-51.429h8.578v51.429c28.308-14.572 50.611-39.429 61.763-69.429H98.001c0-1.714.858-2.571.858-4.285v-4.286h47.18c5.147-17.143 6.862-34.286 6.004-52.286ZM50.822 75.593c1.715 3.428 5.146 6 8.578 7.714 4.289 1.714 8.578 5.143 10.294 9.428.857.858.857 1.715 1.715 2.572-3.431.857-7.72 2.571-10.294 5.143-.858-.857-.858-2.572-.858-3.429-.857-4.285-2.573-8.571-6.004-12-1.716-2.571-3.431-6-3.431-9.428Zm0 32.571c-1.716-4.286-5.147-6.857-9.436-9.428-2.574-1.715-5.147-4.286-6.005-7.715 2.573 2.572 6.862 4.286 10.294 4.286 5.147 0 9.436 2.571 12.867 6l.858.857c-2.574 2.571-4.29 6.857-6.005 10.286-.858-1.715-1.716-2.572-2.573-4.286Zm-16.299 35.143c3.431-1.714 6.005-5.143 7.72-8.572 1.716-4.285 5.147-8.571 10.294-10.285.858-.857 1.716-.857 2.574-1.715.858 3.429 2.573 7.715 6.004 10.286-1.715.857-2.573.857-4.289.857-4.289.857-8.578 2.572-12.01 6-4.288 2.572-6.862 3.429-10.293 3.429Zm32.597 0c-4.289 1.714-6.863 5.143-9.436 9.428-1.716 2.572-4.289 5.143-7.72 6 2.573-2.571 3.431-6.857 4.289-10.285 0-5.143 2.573-9.429 6.005-12.857l.857-.858c2.574 2.572 6.863 4.286 10.294 5.143-1.716 1.715-2.573 2.572-4.289 3.429Zm18.014-52.286c4.29-1.714 6.863-5.143 9.436-9.428 1.716-2.572 4.29-5.143 7.72-6-2.573 2.571-3.43 6.857-4.289 10.285 0 5.143-2.573 9.429-6.004 12.858 0 0-.858.857-.858 1.714-2.574-2.572-6.863-4.286-10.294-5.143l4.29-4.286Zm16.299 68.572c-1.716-3.429-5.147-6-8.579-7.715-4.289-1.714-8.578-5.143-10.293-9.428-.858-.857-.858-1.715-1.716-2.572 3.431-.857 7.72-2.571 10.294-5.143.858.858.858 2.572.858 3.429.857 4.286 2.573 8.571 6.004 12 1.716 2.571 3.432 6 3.432 9.429Zm0-32.572c1.715 4.286 5.146 6.857 9.435 9.429 2.574 1.714 5.147 4.285 6.005 7.714-3.431-2.571-6.862-3.429-10.294-4.286-5.146 0-9.436-2.571-12.867-6l-.858-.857c2.574-2.571 4.29-6 6.005-10.286.858 1.715 1.716 2.572 2.574 4.286Zm9.435-27.428c-1.715 4.285-5.146 8.571-10.293 10.285-.858.857-1.716.857-2.574 1.715-.858-3.429-2.573-6.858-5.147-9.429l-.857-.857c1.715-.857 2.573-.857 4.289-.857 4.289 0 8.578-2.572 12.009-6 2.573-1.715 6.005-3.429 9.436-3.429-2.573 2.572-5.147 5.143-6.863 8.572ZM13.935 54.164c2.574 0 5.147-.857 6.863-2.571 2.574-1.715 6.005-3.429 8.578-2.572 3.431 0 6.005.858 8.578 2.572 1.716 1.714 4.29 2.571 6.863 2.571 2.573 0 5.147-.857 6.862-2.571 2.574-1.715 6.005-3.429 8.578-3.429 3.432 0 6.005.857 8.578 3.429 1.716 1.714 4.29 2.571 6.863 2.571 2.574 0 5.147-.857 6.863-2.571 5.146-4.286 12.009-4.286 18.014 0 4.289 2.571 9.436 2.571 13.725 0 5.146-4.286 12.009-4.286 18.014 0 4.289 2.571 9.436 2.571 13.725 0 1.715-1.715 3.431-2.572 6.004-2.572L128.025.164c-3.432 2.572-7.721 4.286-12.01 3.429-7.72 0-8.578-3.429-20.587-3.429-6.863-.857-12.867 1.715-18.014 6-6.005-4.285-12.868-6.857-18.872-6-12.01 0-12.867 3.429-20.588 3.429-4.289.857-8.578 0-12.01-3.429L1.069 49.021c2.574 0 4.29.858 6.005 2.572 2.573 1.714 4.29 2.571 6.862 2.571ZM95.428 8.736c11.151 0 12.867 3.428 20.587 3.428 3.431 0 6.863 0 10.294-1.714l13.725 27.429s-1.716 1.714-12.867 1.714c-11.152 0-12.867-6-30.882-6-5.146 0-9.435 1.714-13.724 5.143l-6.005-24c5.147-4.286 12.01-6.857 18.872-6ZM26.803 10.45c3.431 1.714 6.862 1.714 10.293 1.714 7.72 0 9.436-3.428 20.588-3.428 6.862-.857 13.725 1.714 18.872 6l-6.863 24.857c-3.43-3.429-8.578-5.143-13.725-5.143-17.156 0-18.872 6-30.88 6-12.01 0-12.01-1.714-12.01-1.714L26.803 10.45Z"/></svg>